# xmcd CD database file
#
# Track frame offsets:
#	182
#	17227
#	35332
#	62062
#
# Disc length: 1178 seconds
#
# Revision: 0
# Processed by: cddbd v1.5.1PL0 Copyright (c) Steve Scherf et al.
# Submitted via: CDex 1.51
#
DISCID=2c049804
DTITLE=Amii Stewart - Knock On Wood 99
DYEAR=1999
DGENRE=Techno
TTITLE0=Knock On Wood 99 (70s revisited)
TTITLE1=Knock On Wood 99 (99 single dance mix)
TTITLE2=Knock On Wood 99 (99 east coast club mix)
TTITLE3=Knock On Wood 99 (99 heavy groove club mix)
EXTD=YEAR: 1999
EXTT0=
EXTT1=
EXTT2=
EXTT3=
PLAYORDER=
